<svg xmlns="http://www.w3.org/2000/svg" width="282" height="282" fill="none" viewBox="0 0 282 282">
    <g clip-path="url(#clip0_42_464)">
        <path stroke="#F0F0F0"
              d="M291-7h24m-24 0v24m0-24v-24m0 24h-24m24 0l-6 6m6-6l6-6m18 6v24m0-24l6-6m-6 30l6-6v-24m-6 30h-18m-6 0v24m0-24l-6 6m6-6h6m-6 24h-24V23m24 18l6-6V17m-30-48h24m-24 0l6-6h24m-30 6v18m24-18l6-6M267-7h-24m24 0l-6 6m6-6v-6m-24 6v24h18M243-7l6-6h18m-6 12h24m-24 0v18m24 6h-18m18 0V-1m36-12h-24m0 0v-24m-30 60h-6v-6M9-7h24M9-7v24M9-7v-24M9-7h-24M9-7L3-1m6-6l6-6m18 6v24m0-24l6-6m-6 30l6-6v-24m-6 30H15m-6 0v24m0-24l-6 6m6-6h6M9 41h-24V23M9 41l6-6V17m-30-48H9m-24 0l6-6h24m-30 6v18M9-31l6-6M-15-7h-24m24 0l-6 6m6-6v-6m-24 6v24h18M-39-7l6-6h18m-6 12H3m-24 0v18m24 6h-18m18 0V-1m36-12H15m0 0v-24m-30 60h-6v-6M97.294-10.294l20.785-12m-20.785 12l12 20.784m-12-20.784l-12-20.785m12 20.785l-20.784 12m20.784-12l-2.196 8.196m2.196-8.196l2.196-8.196m18.589-3.804l12 20.784m-12-20.784l2.196-8.196m9.804 28.98l2.196-8.196-12-20.784m9.804 28.98l-15.589 9m-5.196 3l12 20.785m-12-20.785l-2.196 8.196m2.196-8.196l5.196-3m6.804 23.785l-20.784 12-9-15.588m29.784 3.588l2.196-8.196-9-15.589M64.51-19.079l20.784-12m-20.784 12l2.196-8.196 20.784-12M64.51-19.079l9 15.589M85.294-31.08l2.196-8.196M76.51 1.705l-20.785 12m20.785-12l-2.197 8.197m2.197-8.196l-3-5.196M55.725 13.706l12 20.784 15.589-9M55.725 13.706l2.196-8.196 15.589-9m.803 13.392l20.785-12m-20.784 12l9 15.588m23.784-6.803l-15.588 9m15.588-9l-3-5.197-9-15.588m25.177-28.392l-20.785 12m0 0l-12-20.785m4.02 66.962l-5.197 3-3-5.197m101.393-35.784l12-20.785m-12 20.785l20.784 12m-20.784-12l-20.785-12m20.785 12l-12 20.784m12-20.784l2.196 8.196m-2.196-8.196l-2.196-8.196m14.196-12.589l20.784 12m-20.784-12l-2.196-8.196m22.98 20.196l-2.196-8.196-20.784-12m22.98 20.196l-9 15.589m-3 5.196l20.785 12m-20.785-12l2.197 8.196m-2.197-8.196l3-5.196m17.785 17.196l-12 20.784-15.588-9m27.588-11.784l-2.196-8.196-15.589-9m-56.569 1.98l12-20.784m-12 20.784l-2.196-8.196 12-20.784m-9.804 28.98l15.589 9m-3.589-29.784l-2.196-8.196m10.981 40.98l-12 20.785m12-20.785l2.196 8.197m-2.196-8.197l-5.196-3m-6.804 23.785l20.784 12 9-15.588m-29.784 3.588l-2.196-8.196 9-15.589m7.392 11.197l12-20.785m-12 20.785l15.588 9m17.197-17.785l-9 15.588m9-15.588l-5.197-3-15.588-9m7.608-37.177l-12 20.785m0 0l-20.785-12m36.962 55.98l-3 5.197-5.197-3M85 87V63m0 24h24m-24 0H61m24 0v24m0-24l6 6m-6-6l-6-6m6-18h24m-24 0l-6-6m30 6l-6-6H79m30 6v18m0 6h24m-24 0l6 6m-6-6v-6m24 6v24h-18m18-24l-6-6h-18m-48 30V87m0 24l-6-6V81m6 30h18M61 87l-6-6m30 30v24m0-24l6 6m-6-6h-6m6 24h24v-18m-24 18l-6-6v-18m12 6V93m0 24h18m6-24v18m0-18H91M79 57v24m0 0H55m60 30v6h-6M3.294 83.706l20.785-12m-20.785 12l12 20.784m-12-20.784l-12-20.785m12 20.785l-20.784 12m20.784-12l-2.196 8.196m2.196-8.196L5.49 75.51m18.589-3.804l12 20.784m-12-20.784l2.196-8.196m9.804 28.98l2.196-8.196-12-20.784m9.804 28.98l-15.589 9m-5.196 3l12 20.785m-12-20.785l-2.196 8.197m2.196-8.197l5.196-3m6.804 23.785l-20.784 12-9-15.588m29.784 3.588l2.196-8.196-9-15.589m-49.98-26.569l20.784-12m-20.784 12l2.196-8.196 20.784-12m-22.98 20.196l9 15.589M-8.706 62.92l2.196-8.196m-10.98 40.98l-20.785 12.001m20.785-12l-2.197 8.196m2.197-8.196l-3-5.196m-17.785 17.196l12 20.784 15.588-9m-27.588-11.784l2.196-8.196 15.589-9m.803 13.392l20.785-12m-20.784 12l9 15.588m23.784-6.803l-15.588 9m15.588-9l-3-5.197-9-15.588M26.275 63.51l-20.785 12m0 0l-12-20.785m4.02 66.962l-5.197 3-3-5.197M197 87h24m-24 0v24m0-24V63m0 24h-24m24 0l-6 6m6-6l6-6m18 6v24m0-24l6-6m-6 30l6-6V81m-6 30h-18m-6 0v24m0-24l-6 6m6-6h6m-6 24h-24v-18m24 18l6-6v-18m-30-48h24m-24 0l6-6h24m-30 6v18m24-18l6-6m-30 30h-24m24 0l-6 6m6-6v-6m-24 6v24h18m-18-24l6-6h18m-6 12h24m-24 0v18m24 6h-18m18 0V93m36-12h-24m0 0V57m-30 60h-6v-6m118.294-27.294l20.785-12m-20.785 12l12 20.784m-12-20.784l-12-20.785m12 20.785l-20.784 12m20.784-12l-2.196 8.196m2.196-8.196l2.196-8.196m18.589-3.804l12 20.784m-12-20.784l2.196-8.196m9.804 28.98l2.196-8.196-12-20.784m9.804 28.98l-15.589 9m-5.196 3l12 20.785m-12-20.785l-2.196 8.196m2.196-8.196l5.196-3m6.804 23.785l-20.784 12-9-15.589m29.784 3.589l2.196-8.196-9-15.589m-49.98-26.569l20.784-12m-20.784 12l2.196-8.196 20.784-12m-22.98 20.196l9 15.589m11.784-27.589l2.196-8.196m-10.98 40.98l-20.785 12.001m20.785-12l-2.197 8.196m2.197-8.196l-3-5.196m-17.785 17.196l12 20.784 15.588-9m-27.588-11.784l2.196-8.196 15.589-9m.803 13.392l20.785-12m-20.785 12l9 15.588m23.785-6.804l-15.588 9m15.588-9l-3-5.196-9-15.588m25.177-28.392l-20.785 12m0 0l-12-20.785m4.02 66.961l-5.197 3-3-5.196M179 181v-24m0 24h24m-24 0h-24m24 0v24m0-24l6 6m-6-6l-6-6m6-18h24m-24 0l-6-6m30 6l-6-6h-24m30 6v18m0 6h24m-24 0l6 6m-6-6v-6m24 6v24h-18m18-24l-6-6h-18m-48 30v-24m0 24l-6-6v-24m6 30h18m-18-24l-6-6m30 30v24m0-24l6 6m-6-6h-6m6 24h24v-18m-24 18l-6-6v-18m12 6v-24m0 24h18m6-24v18m0-18h-24m-12-36v24m0 0h-24m60 30v6h-6m-100-30h24m-24 0v24m0-24v-24m0 24H79m24 0l-6 6m6-6l6-6m18 6v24m0-24l6-6m-6 30l6-6v-24m-6 30h-18m-6 0v24m0-24l-6 6m6-6h6m-6 24H79v-18m24 18l6-6v-18m-30-48h24m-24 0l6-6h24m-30 6v18m24-18l6-6m-30 30H55m24 0l-6 6m6-6v-6m-24 6v24h18m-18-24l6-6h18m-6 12h24m-24 0v18m24 6H79m18 0v-24m36-12h-24m0 0v-24m-30 60h-6v-6m-76.294-27.294l12-20.785m-12 20.785l20.784 12m-20.784-12l-20.785-12m20.785 12l-12 20.784m12-20.784l2.196 8.196m-2.196-8.196l-2.196-8.196m14.196-12.589l20.784 12m-20.784-12l-2.196-8.196m22.98 20.196l-2.196-8.196-20.784-12m22.98 20.196l-9 15.589m-3 5.196l20.785 12m-20.785-12l2.197 8.196m-2.197-8.196l3-5.196m17.785 17.196l-12 20.784-15.588-9m27.588-11.784l-2.196-8.196-15.589-9m-56.569 1.98l12-20.784m-12 20.784l-2.196-8.196 12-20.784m-9.804 28.98l15.589 9m-3.589-29.784l-2.196-8.196m10.98 40.98l-12 20.785m12-20.785l2.197 8.196m-2.196-8.196l-5.196-3m-6.804 23.785l20.784 12 9-15.589m-29.784 3.589l-2.196-8.196 9-15.589m7.392 11.196l12-20.784m-12 20.784l15.588 9m17.197-17.784l-9 15.588m9-15.588l-5.197-3-15.588-9m7.608-37.177l-12 20.785m0 0l-20.785-12m36.962 55.98l-3 5.196-5.197-3m276.216-37.98l12-20.785m-12 20.785l20.784 12m-20.784-12l-20.785-12m20.785 12l-12 20.784m12-20.784l2.196 8.196m-2.196-8.196l-2.196-8.196m14.196-12.589l20.784 12m-20.784-12l-2.196-8.196m22.98 20.196l-2.196-8.196-20.784-12m22.98 20.196l-9 15.589m-3 5.196l20.785 12m-20.785-12l2.197 8.196m-2.197-8.196l3-5.196m17.785 17.196l-12 20.784-15.588-9m27.588-11.784l-2.196-8.196-15.589-9m-56.569 1.98l12-20.784m-12 20.784l-2.196-8.196 12-20.784m-9.804 28.98l15.589 9m-3.589-29.784l-2.196-8.196m10.981 40.98l-12 20.785m12-20.785l2.196 8.196m-2.196-8.196l-5.196-3m-6.804 23.785l20.784 12 9-15.589m-29.784 3.589l-2.196-8.196 9-15.589m7.392 11.196l12-20.784m-12 20.784l15.588 9m17.197-17.784l-9 15.588m9-15.588l-5.197-3-15.588-9m7.608-37.177l-12 20.785m0 0l-20.785-12m36.962 55.98l-3 5.196-5.197-3M291 275h24m-24 0v24m0-24v-24m0 24h-24m24 0l-6 6m6-6l6-6m18 6v24m0-24l6-6m-6 30l6-6v-24m-6 30h-18m-6 0v24m0-24l-6 6m6-6h6m-6 24h-24v-18m24 18l6-6v-18m-30-48h24m-24 0l6-6h24m-30 6v18m24-18l6-6m-30 30h-24m24 0l-6 6m6-6v-6m-24 6v24h18m-18-24l6-6h18m-6 12h24m-24 0v18m24 6h-18m18 0v-24m36-12h-24m0 0v-24m-30 60h-6v-6m-76.294-27.294l12-20.785m-12 20.785l20.784 12m-20.784-12l-20.785-12m20.785 12l-12 20.784m12-20.784l2.196 8.196m-2.196-8.196l-2.196-8.196m14.196-12.589l20.784 12m-20.784-12l-2.196-8.196m22.98 20.196l-2.196-8.196-20.784-12m22.98 20.196l-9 15.589m-3 5.196l20.785 12m-20.785-12l2.197 8.196m-2.197-8.196l3-5.196m17.785 17.196l-12 20.784-15.588-9m27.588-11.784l-2.196-8.196-15.589-9m-56.569 1.98l12-20.784m-12 20.784l-2.196-8.196 12-20.784m-9.804 28.98l15.589 9m-3.589-29.784l-2.196-8.196m10.981 40.98l-12 20.785m12-20.785l2.196 8.196m-2.196-8.196l-5.196-3m-6.804 23.785l20.784 12 9-15.589m-29.784 3.589l-2.196-8.196 9-15.589m7.392 11.196l12-20.784m-12 20.784l15.588 9m17.197-17.784l-9 15.588m9-15.588l-5.197-3-15.588-9m7.608-37.177l-12 20.785m0 0l-20.785-12m36.962 55.98l-3 5.196-5.197-3m-93.196-37.98l20.785-12m-20.785 12l12 20.784m-12-20.784l-12-20.785m12 20.785l-20.784 12m20.784-12l-2.196 8.196m2.196-8.196l2.196-8.196m18.589-3.804l12 20.784m-12-20.784l2.196-8.196m9.804 28.98l2.196-8.196-12-20.784m9.804 28.98l-15.589 9m-5.196 3l12 20.785m-12-20.785l-2.196 8.197m2.196-8.197l5.196-3m6.804 23.785l-20.784 12-9-15.588m29.784 3.588l2.196-8.196-9-15.589m-49.98-26.569l20.784-12m-20.784 12l2.196-8.196 20.784-12m-22.98 20.196l9 15.589m11.784-27.589l2.196-8.196m-10.98 40.981l-20.785 12m20.785-12l-2.197 8.196m2.197-8.196l-3-5.196m-17.785 17.196l12 20.784 15.589-9m-27.589-11.784l2.196-8.196 15.589-9m.803 13.392l20.785-12m-20.784 12l9 15.588m23.784-6.803l-15.588 9m15.588-9l-3-5.197-9-15.588m25.177-28.392l-20.785 12m0 0l-12-20.785m4.02 66.962l-5.197 3-3-5.197M9 275h24m-24 0v24m0-24v-24m0 24h-24m24 0l-6 6m6-6l6-6m18 6v24m0-24l6-6m-6 30l6-6v-24m-6 30H15m-6 0v24m0-24l-6 6m6-6h6m-6 24h-24v-18m24 18l6-6v-18m-30-48H9m-24 0l6-6h24m-30 6v18m24-18l6-6m-30 30h-24m24 0l-6 6m6-6v-6m-24 6v24h18m-18-24l6-6h18m-6 12H3m-24 0v18m24 6h-18m18 0v-24m36-12H15m0 0v-24m-30 60h-6v-6"/>
    </g>
    <defs>
        <clipPath id="clip0_42_464">
            <path fill="#fff" d="M0 0h282v282H0z"/>
        </clipPath>
    </defs>
</svg>
